<svg width="100" height="100" viewBox="0 0 100 100" fill="none" xmlns="http://www.w3.org/2000/svg">
<mask id="mask0_3_2" style="mask-type:alpha" maskUnits="userSpaceOnUse" x="2" y="2" width="96" height="96">
<circle cx="50" cy="50" r="48" fill="url(#paint0_radial_3_2)"/>
</mask>
<g mask="url(#mask0_3_2)">
<circle cx="50" cy="50" r="47" fill="url(#paint1_radial_3_2)" stroke="#9FFF6B" stroke-width="2"/>
<path d="M46.7166 24.3423C48.751 25.1739 50.1024 26.3322 51.0676 28.0696C52.5675 30.7575 54.4832 31.8564 57.6759 31.8564C61.0172 31.8713 63.3487 33.0147 65.6504 35.7917C68.2046 38.8805 69.7936 42.3703 71.1747 47.9242C72.823 54.5622 73.2685 60.1013 73.2685 74.0604V81.0102H52.3299L31.3913 81.0102V77.2383C31.3913 73.1248 31.4804 72.3229 32.1189 70.9864C32.5644 70.0508 34.2425 68.2837 37.3462 65.5216C38.1332 64.8236 39.0985 63.888 39.4994 63.4425C40.1677 62.7149 47.4739 53.3296 47.7858 52.8099C47.86 52.6911 47.5036 52.9138 46.969 53.3445C45.7662 54.2949 44.3406 55.0819 43.212 55.3938C42.1576 55.7056 40.0637 55.7353 39.1133 55.4532C38.7421 55.3492 37.8808 55.275 37.1828 55.275C35.7275 55.275 34.9999 55.5126 33.396 56.4927C32.8169 56.8343 31.8516 57.3689 31.2428 57.6659C30.2181 58.1708 30.0251 58.2153 28.7777 58.2153C27.5303 58.2153 27.3521 58.1708 26.4017 57.6956C25.4958 57.2352 25.1839 56.9531 23.5504 55.0225C21.115 52.1713 20.7289 51.3249 21.1447 49.7953C21.4417 48.741 20.6992 49.3647 34.1385 38.7766C38.059 35.6729 41.6527 32.7771 42.1427 32.3168C44.0733 30.4754 44.7564 28.8418 44.7564 26.0797C44.7564 24.9214 44.8158 24.2829 44.9346 24.1641C45.2019 23.8968 45.781 23.9562 46.7166 24.3423Z" fill="#9FFF6B"/>
<path d="M71.7835 85.9255C71.9914 86.0146 72.3181 86.2225 72.5112 86.4007C72.7042 86.5789 74.0259 89.0589 75.4515 91.925C77.9166 96.8552 78.0502 97.1522 77.9908 97.8204C77.9017 98.6521 77.3671 99.4243 76.6246 99.7807C76.1494 100.003 74.1298 100.018 51.6913 99.9886C27.2778 99.944 27.2481 99.944 26.8471 99.6322C26.1789 99.1421 25.8522 98.5927 25.7928 97.8353C25.7185 97.1522 25.8373 96.8997 28.3173 91.925C29.7429 89.0589 31.0646 86.5789 31.2576 86.4007C31.4507 86.2225 31.8071 86.0146 32.0298 85.9255C32.5941 85.7028 71.2489 85.7176 71.7835 85.9255Z" fill="#9FFF6B"/>
</g>
<defs>
<radialGradient id="paint0_radial_3_2" cx="0" cy="0" r="1" gradientUnits="userSpaceOnUse" gradientTransform="translate(50 50) rotate(90) scale(48)">
<stop stop-color="#133944"/>
<stop offset="1" stop-color="#020202"/>
</radialGradient>
<radialGradient id="paint1_radial_3_2" cx="0" cy="0" r="1" gradientUnits="userSpaceOnUse" gradientTransform="translate(50 50) rotate(90) scale(48)">
<stop stop-color="#133944"/>
<stop offset="1" stop-color="#020202"/>
</radialGradient>
</defs>
</svg>
